<svg xmlns="http://www.w3.org/2000/svg" viewBox="0 0 575.43 246.83">
    <defs>
        <style>
            .cls-1{fill:none;}.cls-2{isolation:isolate;}.cls-3{fill:#221f1f;}.cls-4{clip-path:url(#clip-path);}.cls-5{mix-blend-mode:multiply;}.cls-6{fill:#2662ae;}.cls-7{fill:#ffda00;}
        </style>
        <clipPath id="clip-path" transform="translate(0 3.05)">
            <path class="cls-1"
                  d="M245,58.79c.32-28.63,15.12-37.59,23.19-37.59,11.26,0,15.91,8.65,16.67,12.48s5,6.89,6.39.61,14.62-25.41,30.9-25.41c14.91,0,20.07,15.47,19.62,28.63-1.22,35.82-47.08,64.42-53.12,82.47C283.24,109.05,244.59,93.24,245,58.79Z"/>
        </clipPath>
    </defs>
    <g class="cls-2">
        <g id="Layer_2">
            <g id="logo">
                <path class="cls-3"
                      d="M497.91,53.91c3.31-3.88,5.58-6.14,5.07-8.83s-9.56-4.55-13.59-.81c-11.92-9.52-9.48,1.63-7.75,4.11C467.56,58.35,458,84.57,465.7,105c7.49,20,30.09,22.46,41.93,8.41,10.49-12.45,8.62-35.33-9.72-59.53m-9.16,57.59c-7.7-.39-12.1-9.56-11.56-18.93.94-16.51,14.66-33.17,14.66-33.17,3.2,2.94,12.83,18.87,12.31,31.06C503.65,102.37,496.44,111.89,488.75,111.5Z"
                      transform="translate(0 3.05)"/>
                <path class="cls-3"
                      d="M56.65,14.15C30.09,12.21.74,34.35,1.86,63A5.6,5.6,0,0,0,7.6,68.28c4.11,0,16.14-.45,16.14-.45S0,86.66,0,108.7c0,11.64,8.67,25.57,26.78,25.57,25.38,0,44.29-20.9,44.26-38.61,0-1.35-1.54-3.25-4-.23C63.09,100.23,42,122,21.15,122c-7,0-13.09-4-13.09-12.4,0-11,17.35-32.46,47.17-40.88,7.31-2.14,7.92-12.4-1.37-12.86-9.12-.45-40.62,3.06-42.9,3.06s-2.49-.49-1.68-2.6c1.07-2.75,12.63-23.12,47.32-26.95C68.32,28.48,67.14,14.92,56.65,14.15Z"
                      transform="translate(0 3.05)"/>
                <path class="cls-3"
                      d="M94.19,47.63c0-6.92-10.21-11.18-14.06-1.37-7.42,18.87-9.67,76.08,15.14,76.08,10.89,0,24.8-24,24.8-47.46,0-19.34-7.87-32-9.54-34.25s-3.93-1.07-3.63,3.19,1.52,43.69-10.74,58c-4.84,5.33-8.41-.22-8.92-5.48C85.72,81,94.19,57.68,94.19,47.63Z"
                      transform="translate(0 3.05)"/>
                <path class="cls-3"
                      d="M213.16,51.62s3.94-5.38,1.57-8.42c-2.67-3.42-11.2-4.49-19.2,4.53-10.52,11.86-17.9,36.9-9.93,57.91,7.63,20.08,29,21.78,38.86,6.55C233.28,98.61,231,76,213.16,51.62Zm-5.57,57.45c-7,0-10.84-9-10.84-18.89,0-17.33,12.38-33.1,12.38-33.1,3.41,4.38,11.61,16.71,11.61,29.2S214.55,109.07,207.59,109.07Z"
                      transform="translate(0 3.05)"/>
                <path class="cls-3"
                      d="M180.38,123.89c-7.42-10.36-16.74-31.11-31-43.66C163.84,79.31,182,68,182,55.88c0-9-9.26-15.41-21.28-15.41s-25.28,4.08-30.3,7.14c-6.55,3.83-1.68,12.86,4.41,10.42,0,0-2.28,10.71-2.89,16.38-4.94-.62-5.94.3-5.63,1.37s2.43,2,4.87,5.06c-.76,6.73-2.11,36.69-1.81,39.29s1.88,3.08,4.11.31c2-2.45,6.22-8.37,8.2-30.72,2.28,2,8.52,10.4,16.12,20.21,11.16,14.39,14.84,15.43,19.43,17C179.65,127.86,182.2,126.43,180.38,123.89ZM143.15,72.11c.61-7.81,1.21-15.92,1.21-15.92s17.35-4.44,23.28-3.83c5.17.53,6.24,2.76,3.61,6.86C165.06,68.9,150.82,72.25,143.15,72.11Z"
                      transform="translate(0 3.05)"/>
                <path class="cls-3"
                      d="M365.27,42.46c.4,15.56-13.2,40.3-14.07,58.36C350.56,114,352.91,119.31,354,121s3.72,2,4.41-1.33c2-9.86,16-35.87,17.82-56.78,1.1-12.81-2.85-20.66-7.39-22.14C366.83,40.13,365.21,40.38,365.27,42.46Z"
                      transform="translate(0 3.05)"/>
                <path class="cls-3"
                      d="M416,40.47c-19,0-32.75,6.79-32.75,22.2,0,9.49,7,16,18.16,17.86,6.49,1.23,12.81,1.71,15.11,2.55,4.17,1.53-5.8,6.36-21.31,16.94-10.59,7.23-18.33,14.87-22.46,23-1.43,2.81.5,5.49,3.5,3.41,5.81-4,18.56-10.74,30.92-17.58C418.92,102.31,430,95.15,430,86.25c0-8.07-6-11.11-10.65-11.64-8-.92-25.37-.2-25.37-10.31,0-3.77,5-8.73,20.95-8.73C427.26,55.57,426,40.47,416,40.47Z"
                      transform="translate(0 3.05)"/>
                <path class="cls-3"
                      d="M439.93,43.28c6.23,12-4.36,44.73-4.36,57.16s1.39,16.8,4.66,20.83c1.67,2.06,3.86.82,4.06-1.4,1-11,12.71-40.68,13.47-54.5,1-17.59-7.67-24.41-12.73-24.84C442.22,40.3,438.52,40.8,439.93,43.28Z"
                      transform="translate(0 3.05)"/>
                <path class="cls-3"
                      d="M444.22,26.31c-.32,11.46,18.67,13.31,18.67-.7,0-12.2-10.15-22.3-12.19-24C447.53-1,443.05-.5,444.11,3.7,446.54,12.51,444.33,22.31,444.22,26.31Z"
                      transform="translate(0 3.05)"/>
                <path class="cls-3"
                      d="M574.5,121.15c-2.48-15.39.93-35.2.93-53.85,0-14.25-11.76-21.57-18.74-21.57-9.07,0-14.46,4.11-14.46,4.11.1-2.71.57-6.88.48-8.19-.1-1.51-1.89-1.51-4.48-.11-14.26,8.93-16.32,34.55-16.32,52.3s2.81,24,3.1,26.46a2.18,2.18,0,0,0,4.18.62c7.57-14.85,8.46-41.89,11-56.94,3.59-4.91,18.24-5.81,18.84,5.92.61,11.95-.53,42.14,11.61,52.69C572.32,124,574.86,123.36,574.5,121.15Z"
                      transform="translate(0 3.05)"/>
                <path class="cls-3"
                      d="M327.44,0c-13.39,0-29.22,10-38.81,26.49C286,20.52,276.83,14,265.87,14c-8.82,0-33.6,11.1-33.6,46.92,0,46.24,46.49,55.74,55.89,70.11a1.91,1.91,0,0,0,3.52-.63c7.5-22.27,65.65-47.43,65.65-92.75C357.33,12.25,340.83,0,327.44,0ZM245,58.79c.32-28.63,15.12-37.59,23.19-37.59,11.26,0,15.91,8.65,16.67,12.48s5,6.89,6.39.61,14.62-25.41,30.9-25.41c14.91,0,20.07,15.47,19.62,28.63-1.22,35.82-47.08,64.42-53.12,82.47C283.24,109.05,244.59,93.24,245,58.79Z"
                      transform="translate(0 3.05)"/>
                <g class="cls-4">
                    <g class="cls-5">
                        <polygon class="cls-6"
                                 points="378.89 58.3 205.69 76.68 205.69 18.38 378.89 0 378.89 58.3"/>
                        <polygon class="cls-7"
                                 points="205.69 134.98 378.89 116.6 378.89 58.3 205.69 76.68 205.69 134.98"/>
                    </g>
                </g>
            </g>
        </g>
    </g>
</svg>